<svg width="400" height="400" viewBox="0 0 400 400" fill="none" xmlns="http://www.w3.org/2000/svg">
<g clip-path="url(#clip0_2629_1817)">
<path d="M66.7163 142.9C35.1809 142.9 9.61523 168.465 9.61523 200.001C9.61523 231.537 35.1809 257.1 66.7163 257.1C98.255 257.1 123.818 231.537 123.818 200.001C123.818 168.467 98.255 142.903 66.7156 142.903L66.7163 142.9ZM92.9024 225.255C92.6588 225.655 92.3387 226.002 91.9607 226.278C91.5826 226.553 91.154 226.751 90.6992 226.861C90.2445 226.97 89.7726 226.989 89.3106 226.916C88.8485 226.843 88.4055 226.68 88.0067 226.435C74.5999 218.246 57.7225 216.391 37.8463 220.932C36.9259 221.142 35.9601 220.977 35.1612 220.475C34.3622 219.972 33.7954 219.173 33.5854 218.253C33.4807 217.797 33.467 217.325 33.545 216.864C33.623 216.404 33.7911 215.962 34.0398 215.567C34.2885 215.171 34.6128 214.828 34.9941 214.558C35.3755 214.287 35.8065 214.095 36.2623 213.991C58.0137 209.022 76.6714 211.161 91.7228 220.36C93.4002 221.389 93.932 223.578 92.9024 225.255ZM99.8915 209.708C98.6028 211.802 95.8617 212.464 93.7684 211.175C78.4197 201.741 55.023 199.009 36.8685 204.519C34.514 205.231 32.0273 203.904 31.3127 201.553C30.9717 200.423 31.0928 199.204 31.6493 198.163C32.2059 197.123 33.1525 196.345 34.2815 196.001C55.0189 189.709 80.7994 192.757 98.4255 203.588C100.519 204.877 101.18 207.617 99.8915 209.708ZM100.492 193.518C82.0881 182.587 51.7249 181.582 34.154 186.914C31.3325 187.77 28.3487 186.177 27.4936 183.356C27.0825 182 27.2265 180.537 27.8941 179.288C28.5617 178.038 29.6982 177.105 31.0536 176.693C51.2237 170.57 84.7542 171.753 105.942 184.332C106.546 184.689 107.074 185.162 107.494 185.723C107.915 186.284 108.221 186.923 108.395 187.603C108.568 188.283 108.606 188.99 108.506 189.685C108.406 190.379 108.169 191.047 107.811 191.65C106.311 194.188 103.024 195.025 100.494 193.518H100.492ZM164.968 195.612C155.109 193.261 153.356 191.611 153.356 188.144C153.356 184.868 156.438 182.664 161.027 182.664C165.473 182.664 169.878 184.338 174.501 187.784C174.637 187.888 174.814 187.93 174.985 187.902C175.071 187.89 175.153 187.86 175.227 187.815C175.301 187.77 175.364 187.71 175.414 187.639L180.228 180.853C180.323 180.719 180.364 180.553 180.341 180.39C180.318 180.227 180.234 180.079 180.106 179.975C174.603 175.562 168.412 173.416 161.17 173.416C150.526 173.416 143.087 179.804 143.087 188.944C143.087 198.746 149.504 202.217 160.591 204.896C170.021 207.069 171.616 208.889 171.616 212.143C171.616 215.75 168.398 217.994 163.216 217.994C157.461 217.994 152.763 216.05 147.513 211.509C147.382 211.398 147.213 211.342 147.042 211.352C146.865 211.366 146.708 211.448 146.599 211.577L141.199 218C140.974 218.273 141.001 218.669 141.26 218.901C147.369 224.355 154.884 227.233 162.998 227.233C174.467 227.233 181.878 220.967 181.878 211.264C181.899 203.077 176.996 198.542 164.989 195.621L164.968 195.612ZM207.83 185.889C202.859 185.889 198.782 187.847 195.413 191.86V187.343C195.414 187.173 195.347 187.009 195.227 186.887C195.107 186.766 194.943 186.697 194.772 186.696H185.942C185.588 186.696 185.301 186.987 185.301 187.343V237.529C185.301 237.884 185.588 238.177 185.942 238.177H194.772C195.127 238.177 195.413 237.884 195.413 237.529V221.689C198.782 225.46 202.859 227.308 207.83 227.308C217.069 227.308 226.424 220.196 226.424 206.6C226.438 193.002 217.083 185.888 207.837 185.888L207.83 185.889ZM216.156 206.6C216.156 213.521 211.894 218.355 205.784 218.355C199.75 218.355 195.195 213.302 195.195 206.6C195.195 199.898 199.75 194.847 205.784 194.847C211.792 194.846 216.156 199.789 216.156 206.6ZM250.392 185.889C238.493 185.889 229.172 195.05 229.172 206.748C229.172 218.321 238.432 227.383 250.249 227.383C262.188 227.383 271.536 218.253 271.536 206.6C271.536 194.988 262.249 185.89 250.392 185.89V185.889ZM250.392 218.423C244.064 218.423 239.291 213.337 239.291 206.597C239.291 199.827 243.9 194.914 250.249 194.914C256.617 194.914 261.417 199.999 261.417 206.745C261.417 213.514 256.781 218.423 250.392 218.423ZM296.942 186.696H287.226V176.764C287.226 176.68 287.21 176.596 287.178 176.518C287.146 176.44 287.099 176.368 287.039 176.308C286.98 176.248 286.909 176.201 286.831 176.168C286.753 176.135 286.669 176.118 286.585 176.118H277.755C277.4 176.118 277.107 176.408 277.107 176.764V186.696H272.866C272.511 186.696 272.225 186.987 272.225 187.343V194.93C272.225 195.286 272.511 195.578 272.866 195.578H277.107V215.212C277.107 223.142 281.055 227.165 288.849 227.165C292.012 227.165 294.638 226.51 297.113 225.105C297.317 224.996 297.44 224.778 297.44 224.546V217.319C297.44 217.1 297.324 216.889 297.133 216.773C297.04 216.714 296.933 216.68 296.823 216.675C296.713 216.67 296.604 216.695 296.506 216.746C294.808 217.598 293.165 217.994 291.324 217.994C288.494 217.994 287.226 216.705 287.226 213.827V195.581H296.942C297.297 195.581 297.583 195.29 297.583 194.934V187.347C297.586 187.263 297.572 187.178 297.541 187.099C297.51 187.021 297.464 186.949 297.405 186.888C297.345 186.828 297.275 186.78 297.196 186.748C297.118 186.715 297.034 186.699 296.949 186.7L296.942 186.696ZM330.79 186.735V185.515C330.79 181.927 332.167 180.326 335.249 180.326C337.09 180.326 338.57 180.692 340.227 181.244C340.431 181.308 340.643 181.276 340.806 181.154C340.889 181.094 340.957 181.015 341.003 180.924C341.049 180.833 341.073 180.731 341.072 180.629V173.19C341.074 173.051 341.03 172.915 340.948 172.804C340.865 172.692 340.749 172.61 340.615 172.57C338.87 172.05 336.633 171.516 333.279 171.516C325.13 171.516 320.814 176.108 320.814 184.79V186.658H316.573C316.219 186.658 315.925 186.949 315.925 187.305V194.93C315.925 195.286 316.219 195.578 316.573 195.578H320.814V225.856C320.814 226.217 321.107 226.503 321.462 226.503H330.285C330.647 226.503 330.933 226.217 330.933 225.856V195.58H339.177L351.805 225.856C350.373 229.033 348.961 229.667 347.039 229.667C345.484 229.667 343.841 229.203 342.17 228.283C342.012 228.203 341.829 228.186 341.659 228.235C341.488 228.297 341.345 228.419 341.277 228.583L338.284 235.149C338.14 235.463 338.263 235.824 338.563 235.988C341.686 237.679 344.502 238.402 347.986 238.402C354.505 238.402 358.112 235.361 361.283 227.192L376.597 187.619C376.637 187.521 376.652 187.415 376.64 187.31C376.628 187.205 376.59 187.105 376.529 187.018C376.471 186.932 376.393 186.861 376.302 186.812C376.21 186.763 376.108 186.737 376.004 186.737H366.813C366.533 186.737 366.287 186.912 366.199 187.171L356.782 214.059L346.473 187.153C346.427 187.031 346.344 186.926 346.237 186.852C346.13 186.778 346.003 186.738 345.873 186.737H330.79V186.735ZM311.166 186.696H302.336C301.981 186.696 301.688 186.987 301.688 187.343V225.856C301.688 226.217 301.981 226.503 302.336 226.503H311.166C311.52 226.503 311.814 226.217 311.814 225.856V187.346C311.814 187.261 311.797 187.177 311.765 187.098C311.732 187.019 311.685 186.948 311.624 186.888C311.564 186.828 311.493 186.78 311.414 186.748C311.335 186.715 311.251 186.699 311.166 186.699V186.696ZM306.802 169.16C303.304 169.16 300.468 171.991 300.468 175.488C300.468 176.32 300.631 177.143 300.95 177.912C301.268 178.68 301.735 179.379 302.323 179.967C302.911 180.555 303.609 181.021 304.378 181.34C305.147 181.658 305.97 181.822 306.802 181.822C310.3 181.822 313.13 178.987 313.13 175.488C313.13 171.991 310.293 169.16 306.802 169.16ZM384.139 199.08C380.648 199.08 377.927 196.274 377.927 192.866C377.927 189.459 380.682 186.621 384.173 186.621C387.664 186.621 390.384 189.426 390.384 192.831C390.384 196.238 387.63 199.08 384.139 199.08ZM384.173 187.239C380.988 187.239 378.581 189.769 378.581 192.866C378.581 195.963 380.975 198.458 384.139 198.458C387.323 198.458 389.73 195.931 389.73 192.831C389.73 189.735 387.337 187.239 384.173 187.239ZM385.55 193.47L387.309 195.93H385.823L384.241 193.673H382.884V195.93H381.643V189.409H384.548C386.068 189.409 387.064 190.184 387.064 191.489C387.071 192.558 386.45 193.211 385.557 193.47H385.55ZM384.5 190.528H382.884V192.59H384.5C385.305 192.59 385.789 192.195 385.789 191.558C385.789 190.887 385.305 190.528 384.5 190.528Z" fill="#27231F"/>
</g>
<defs>
<clipPath id="clip0_2629_1817">
<rect width="400" height="400" fill="white"/>
</clipPath>
</defs>
</svg>
