<svg width="400" height="400" viewBox="0 0 400 400" fill="none" xmlns="http://www.w3.org/2000/svg">
<g clip-path="url(#clip0_2630_1867)">
<path fill-rule="evenodd" clip-rule="evenodd" d="M338.473 176.92V223.078H384.63V216.431H345.853V201.836H369.977V195.191H345.853V183.677H382.592V176.92H338.473ZM246.157 223.078V176.92H252.266L271.544 203.945L290.815 176.92H296.931V223.078H289.603V189.929L271.539 215.538L253.536 189.911V223.078H246.157Z" fill="#27231F"/>
<path fill-rule="evenodd" clip-rule="evenodd" d="M193.164 213.201C189.287 216.663 184.247 218.385 178.048 218.385C174.948 218.385 172.153 217.96 169.67 217.097C167.178 216.239 164.962 214.948 163.016 213.229C159.158 209.716 157.228 205.304 157.228 199.996C157.228 194.651 159.183 190.252 163.097 186.792C167.009 183.335 171.992 181.606 178.048 181.606C184.177 181.606 189.195 183.354 193.107 186.848C197.018 190.344 198.976 194.724 198.976 199.996C198.976 205.345 197.037 209.744 193.164 213.201ZM198.463 181.81C193.18 177.085 186.377 174.72 178.048 174.72C169.829 174.72 163.07 177.113 157.768 181.893C152.472 186.679 149.822 192.71 149.822 199.996C149.822 207.289 152.472 213.335 157.768 218.154C163.07 222.978 169.829 225.387 178.048 225.387C186.303 225.387 193.09 222.964 198.408 218.129C203.725 213.291 206.386 207.245 206.386 199.996C206.386 192.601 203.741 186.541 198.463 181.81Z" fill="#27231F"/>
<mask id="mask0_2630_1867" style="mask-type:luminance" maskUnits="userSpaceOnUse" x="15" y="174" width="370" height="52">
<path fill-rule="evenodd" clip-rule="evenodd" d="M15.3682 225.387H384.454V174.72H15.3682V225.387Z" fill="white"/>
</mask>
<g mask="url(#mask0_2630_1867)">
<path fill-rule="evenodd" clip-rule="evenodd" d="M105.749 223.922H113.333V176.148H105.749V223.922ZM63.6837 183.566L67.0024 176.709L59.1233 176.721L55.8554 183.566H63.6837ZM40.2633 212.209L22.998 176.628L15.3682 176.631L38.417 224.141H42.1235L46.0192 224.127" fill="#27231F"/>
</g>
</g>
<defs>
<clipPath id="clip0_2630_1867">
<rect width="369.261" height="50.7734" fill="white" transform="translate(15.3696 174.613)"/>
</clipPath>
</defs>
</svg>
