<svg width="400" height="400" viewBox="0 0 400 400" fill="none" xmlns="http://www.w3.org/2000/svg">
<g clip-path="url(#clip0_2630_1835)">
<path d="M114.204 206.024H106.688C103.561 206.024 102.648 204.46 103.756 201.199C105.319 196.57 107.211 192.335 109.559 188.095C111.579 184.445 112.625 183.205 116.275 183.205C117.772 183.205 118.946 183.271 120.448 183.271C122.796 183.271 123.576 182.62 124.427 180.795L125.729 177.924C126.057 177.14 126.057 176.622 125.729 176.36C124.232 176.622 122.858 176.622 120.515 176.622C118.495 176.622 116.798 176.555 114.712 176.555C105.976 176.555 103.366 178.447 98.5468 187.962C96.6551 191.612 94.9632 195.396 93.5944 199.108C90.5286 207.516 92.7485 212.278 102.197 212.278H110.364C116.429 212.278 117.47 211.561 118.905 208.433L119.623 206.87C119.951 206.085 119.951 205.629 119.623 205.373C118.126 205.829 116.496 206.024 114.214 206.024H114.204Z" fill="#27231F"/>
<path d="M80.2232 188.095C82.2431 184.445 83.289 183.205 86.9392 183.205C88.4362 183.205 89.6103 183.271 91.1124 183.271C93.4605 183.271 94.2397 182.62 95.0908 180.795L96.393 177.924C96.7211 177.14 96.7211 176.622 96.393 176.36C94.896 176.622 93.5271 176.622 91.1791 176.622C89.1591 176.622 87.4622 176.555 85.3756 176.555C76.6396 176.555 74.03 178.447 69.2109 187.962C67.3191 191.612 65.6273 195.396 64.2585 199.108C61.1927 207.516 63.4125 212.278 72.8612 212.278H80.3565C86.4214 212.278 87.4621 211.561 88.8976 208.433L89.6154 206.87C89.9435 206.085 89.9435 205.629 89.6154 205.373C88.1184 205.829 86.4881 206.024 84.2067 206.024H77.3624C74.2351 206.024 73.3226 204.46 74.4299 201.199C75.9936 196.57 77.8854 192.335 80.2334 188.095H80.2232Z" fill="#27231F"/>
<path d="M58.6448 162.216H41.0447C39.2862 162.216 38.8914 162.478 37.7841 163.975L34.8515 167.82C34.3286 168.538 34.5234 169.122 34.8515 169.322C36.61 168.932 39.2862 168.799 41.8906 168.799H43.2594C42.475 170.101 41.501 171.409 40.3884 172.839L25.9823 191.418H15.7493C13.9908 191.418 13.596 191.68 12.4886 193.177L9.55613 197.022C9.0332 197.74 9.22802 198.324 9.55613 198.519C11.3146 198.129 13.9908 197.996 16.5952 197.996H20.8965L15.5493 204.907C13.2013 207.906 12.0939 209.47 12.0272 210.772C12.0272 211.684 12.6117 212.269 13.7857 212.269H21.481C22.3269 212.269 22.655 212.074 22.8498 211.618C23.6342 208.357 25.6541 205.035 28.197 201.646L30.8681 197.996H39.7989C44.818 197.996 46.5764 197.278 47.8171 195.258L46.1868 204.779C45.1461 210.972 46.6431 212.274 49.6422 212.274H57.076C57.7271 212.274 58.0553 212.146 58.1219 211.623C57.276 208.885 57.1427 204.779 58.0552 198.452L62.0951 169.701C62.941 163.442 61.6389 162.206 58.6397 162.206L58.6448 162.216ZM51.4725 173.951L48.4733 191.423H35.759L47.8171 175.059C49.4474 172.844 50.8163 170.819 51.9236 168.799C51.9236 170.235 51.7955 171.926 51.4674 173.946L51.4725 173.951Z" fill="#27231F"/>
<path d="M348.317 176.36H342.775C332.408 176.36 329.214 178.38 324.39 187.706C322.498 191.356 320.545 195.657 319.176 199.374C316.111 207.782 318.33 212.545 327.784 212.545H333.326C343.692 212.545 346.886 210.525 351.711 201.199C353.602 197.549 355.556 193.248 356.925 189.531C359.99 181.123 357.771 176.36 348.322 176.36H348.317ZM346.881 187.183C345.318 191.812 342.841 197.16 340.493 201.461C338.473 205.045 336.971 206.547 333.321 206.547H332.147C329.02 206.547 328.107 204.983 329.214 201.722C330.778 197.093 333.254 191.751 335.602 187.444C337.622 183.861 339.125 182.359 342.775 182.359H343.949C347.076 182.359 347.989 183.922 346.881 187.183Z" fill="#27231F"/>
<path d="M309.917 206.024H305.037C302.232 206.024 301.192 204.656 302.494 201.785L310.774 183.139H318.074C319.833 183.139 320.161 182.877 320.812 181.38L322.247 178.186C322.575 177.402 322.575 176.884 322.247 176.623C320.75 176.884 319.376 176.884 317.033 176.884H313.511C314.685 174.08 315.075 172.188 315.075 170.886C315.075 169.712 314.552 169.061 313.511 169.061H306.339C305.493 169.061 305.165 169.255 304.97 169.712C304.842 171.537 304.381 173.69 303.078 176.884H299.361C297.603 176.884 297.275 177.145 296.624 178.642L295.188 181.836C294.865 182.621 294.865 183.139 295.188 183.4C296.624 183.139 297.993 183.139 300.274 183.139L292.845 199.76C289.128 208.106 291.605 212.279 301.058 212.279H306.067C312.132 212.279 313.173 211.561 314.608 208.434L315.326 206.87C315.654 206.086 315.654 205.63 315.326 205.373C313.829 205.83 312.199 206.024 309.912 206.024H309.917Z" fill="#27231F"/>
<path d="M385.707 176.622H384.338C380.298 176.622 377.688 178.319 376.058 181.708H375.863C376.842 178.447 376.514 176.884 374.817 176.884H368.296C367.45 176.884 367.122 177.079 366.927 177.535C366.799 179.816 366.081 182.487 364.712 185.553L355.976 205.178C353.367 210.982 354.736 212.284 357.802 212.284H364.518C365.169 212.284 365.497 212.156 365.564 211.633C365.43 211.305 365.369 210.915 365.369 210.459C365.369 208.306 366.476 205.178 368.434 200.877L373.392 189.988C375.412 185.553 376.458 184.774 380.564 184.774C382 184.774 383.302 184.84 384.604 184.84C387.147 184.84 388.126 184.123 388.906 182.431L390.926 177.935C391.254 177.15 391.254 176.633 390.926 176.371C389.429 176.633 388.055 176.633 385.712 176.633L385.707 176.622Z" fill="#27231F"/>
<path d="M285.294 176.683C281.643 176.683 277.47 176.555 273.82 176.555C262.803 176.555 258.368 181.051 253.677 190.505C252.375 193.176 251.067 195.98 250.093 198.523C246.833 207.064 249.247 212.278 258.435 212.278H259.086C264.628 212.278 267.822 211.494 270.754 208.239C271.539 211.043 274.276 212.278 278.578 212.278H280.598C285.878 212.278 287.052 211.561 288.488 208.433L289.205 206.87C289.534 206.085 289.534 205.629 289.205 205.373C287.708 205.829 286.078 206.024 284.448 206.024H282.428C279.624 206.024 278.711 204.722 279.885 201.784C283.146 193.699 286.601 186.009 290.513 177.924C290.902 177.14 290.841 176.622 290.513 176.36C289.016 176.622 287.647 176.688 285.299 176.688L285.294 176.683ZM270.365 199.369C267.755 204.783 265.868 206.28 262.474 206.28H262.146C259.475 206.28 258.629 204.388 259.737 201.456C261.039 197.934 262.669 194.417 264.433 190.895C267.432 184.896 269.78 182.354 274.604 182.615C276.107 182.682 277.214 182.615 278.06 182.354C275.845 188.024 273.169 193.632 270.37 199.369H270.365Z" fill="#27231F"/>
<path d="M135.5 197.406H148.214C154.602 197.406 155.125 196.688 157.279 192.387C158.063 190.823 158.842 188.998 159.432 187.435C162.169 180.134 160.15 176.351 150.306 176.351H147.635C137.269 176.351 134.075 178.371 129.251 187.696C128.599 188.998 127.948 190.306 127.297 191.674H123.057C121.299 191.674 120.971 191.936 120.32 193.433L119.212 196.104C118.884 196.888 118.884 197.406 119.212 197.668C120.709 197.406 122.473 197.406 124.821 197.406C124.56 197.991 124.365 198.514 124.17 199.103C121.104 207.511 123.324 212.274 132.778 212.274H149.076C155.141 212.274 156.181 211.556 157.617 208.429L158.335 206.865C158.663 206.081 158.663 205.629 158.335 205.368C156.838 205.824 155.207 206.019 152.926 206.019H137.279C134.152 206.019 132.911 204.522 134.018 201.261C134.475 200.021 134.931 198.719 135.515 197.416L135.5 197.406ZM140.652 186.717C142.411 183.456 143.718 182.221 147.107 182.221C150.234 182.221 150.691 183.59 149.517 186.655C149.06 187.829 148.343 189.393 147.82 190.439C147.297 191.485 146.779 191.68 145.733 191.68H138.104C138.95 189.921 139.863 188.224 140.647 186.727L140.652 186.717Z" fill="#27231F"/>
<path d="M176.12 206.023H174.1C171.295 206.023 170.321 204.588 171.557 201.783L184.333 173.099C186.158 168.926 186.876 166.322 186.876 164.691C186.876 163.517 186.353 162.866 185.312 162.866H178.011C177.165 162.866 176.837 163.061 176.643 163.517C176.514 165.799 175.73 168.731 173.643 173.427L161.908 199.763C158.258 207.91 160.801 212.283 169.47 212.283H172.275C177.555 212.283 178.729 211.565 180.165 208.438L180.882 206.874C181.211 206.09 181.211 205.634 180.882 205.377C179.38 205.834 177.755 206.028 176.125 206.028L176.12 206.023Z" fill="#27231F"/>
<path d="M254.292 182.42L256.312 177.924C256.64 177.14 256.64 176.622 256.312 176.36C254.815 176.622 253.446 176.622 251.098 176.622H249.729C245.689 176.622 243.08 178.319 241.45 181.708H241.255C242.234 178.447 241.906 176.883 240.214 176.883H233.698C232.852 176.883 232.524 177.078 232.329 177.534C232.201 179.816 231.483 182.487 230.114 185.553L221.378 205.178C218.769 210.981 220.138 212.284 223.203 212.284H229.919C230.571 212.284 230.899 212.155 230.96 211.632C230.832 211.304 230.765 210.915 230.765 210.458C230.765 208.305 231.873 205.178 233.831 200.877L238.784 189.987C240.804 185.553 241.849 184.773 245.956 184.773C247.391 184.773 248.694 184.84 249.996 184.84C252.539 184.84 253.518 184.122 254.297 182.43L254.292 182.42Z" fill="#27231F"/>
<path d="M212.915 206.014H198.272C195.145 206.014 193.91 204.517 195.017 201.256C195.473 200.015 195.93 198.713 196.514 197.411H209.223C215.611 197.411 216.134 196.693 218.287 192.392C219.067 190.828 219.851 189.003 220.435 187.44C223.173 180.139 221.153 176.355 211.31 176.355H208.639C198.272 176.355 195.084 178.375 190.259 187.701C189.608 189.003 188.957 190.311 188.306 191.679H184.066C182.308 191.679 181.98 191.941 181.329 193.438L180.221 196.109C179.893 196.893 179.893 197.411 180.221 197.673C181.718 197.411 183.482 197.411 185.83 197.411C185.568 197.996 185.374 198.518 185.179 199.108C182.113 207.516 184.333 212.279 193.781 212.279H209.069C215.134 212.279 216.175 211.561 217.611 208.434L218.328 206.87C218.656 206.086 218.656 205.634 218.328 205.373C216.826 205.829 215.201 206.024 212.915 206.024V206.014ZM201.666 186.717C203.425 183.456 204.732 182.22 208.121 182.22C211.248 182.22 211.705 183.589 210.531 186.655C210.074 187.829 209.357 189.393 208.834 190.439C208.311 191.485 207.793 191.679 206.747 191.679H199.118C199.964 189.921 200.877 188.224 201.661 186.727L201.666 186.717Z" fill="#27231F"/>
<path d="M377.637 207.024C377.299 206.444 376.842 205.988 376.268 205.655C375.689 205.316 375.058 205.152 374.371 205.152C373.684 205.152 373.074 205.322 372.495 205.655C371.915 205.993 371.459 206.449 371.126 207.024C370.788 207.603 370.624 208.228 370.624 208.9C370.624 209.572 370.793 210.218 371.126 210.797C371.464 211.376 371.921 211.833 372.495 212.166C373.074 212.504 373.7 212.668 374.371 212.668C375.043 212.668 375.689 212.499 376.268 212.166C376.847 211.827 377.304 211.371 377.637 210.797C377.975 210.218 378.139 209.587 378.139 208.9C378.139 208.213 377.97 207.603 377.637 207.024ZM376.858 210.356C376.612 210.792 376.268 211.135 375.827 211.387C375.391 211.633 374.904 211.756 374.371 211.756C373.838 211.756 373.371 211.633 372.936 211.387C372.5 211.14 372.156 210.797 371.905 210.356C371.659 209.92 371.536 209.433 371.536 208.9C371.536 208.367 371.659 207.9 371.905 207.465C372.151 207.029 372.495 206.685 372.936 206.434C373.371 206.188 373.853 206.065 374.371 206.065C374.889 206.065 375.391 206.188 375.827 206.434C376.263 206.68 376.606 207.024 376.858 207.465C377.104 207.9 377.227 208.382 377.227 208.9C377.227 209.418 377.104 209.92 376.858 210.356Z" fill="#27231F"/>
<path d="M375.853 208.742C375.966 208.557 376.022 208.352 376.022 208.122C376.022 207.793 375.904 207.511 375.669 207.276C375.433 207.04 375.146 206.922 374.802 206.922H373.028V210.9H374.018V209.321H374.454L375.043 210.9H376.13L375.387 209.167C375.576 209.065 375.73 208.921 375.843 208.737L375.853 208.742ZM374.951 208.419C374.869 208.491 374.761 208.521 374.638 208.521H374.028V207.778H374.638C374.766 207.778 374.869 207.814 374.951 207.881C375.033 207.952 375.074 208.034 375.074 208.137C375.074 208.25 375.033 208.342 374.951 208.414V208.419Z" fill="#27231F"/>
<path d="M84.5608 220.994H87.0626L93.7787 237.446H90.0977L88.9749 234.447H82.6485L81.5155 237.446H77.8345L84.5608 220.994ZM87.8522 231.427L85.8322 226.008L83.7918 231.427H87.8522Z" fill="#27231F"/>
<path d="M99.6333 229.213C99.6333 224.055 102.868 220.6 107.6 220.6C111.138 220.6 113.845 222.502 114.962 225.603L111.773 226.762C111.102 224.921 109.625 223.835 107.595 223.835C104.796 223.835 103.017 225.865 103.017 229.218C103.017 232.571 104.801 234.621 107.595 234.621C109.625 234.621 111.102 233.534 111.773 231.694L114.962 232.837C113.84 235.939 111.138 237.851 107.6 237.851C102.879 237.851 99.6333 234.396 99.6333 229.213Z" fill="#27231F"/>
<path d="M126.38 224.019H121.422V220.999H134.737V224.019H129.805V237.451H126.38V224.019Z" fill="#27231F"/>
<path d="M142.114 220.994H145.487V237.446H142.114V220.994Z" fill="#27231F"/>
<path d="M152.788 220.994H156.505L160.673 231.863L164.744 220.994H168.486L161.903 237.446H159.402L152.793 220.994H152.788Z" fill="#27231F"/>
<path d="M175.776 220.994H186.773V224.014H179.15V227.485H186.337V230.494H179.15V234.426H186.773V237.446H175.776V220.994Z" fill="#27231F"/>
<path d="M206.834 220.994H217.831V224.014H210.207V227.485H217.395V230.494H210.207V234.426H217.831V237.446H206.834V220.994Z" fill="#27231F"/>
<path d="M226.085 220.994H229.54L236.103 231.627V220.994H239.476V237.446H235.995L229.458 226.777V237.446H226.085V220.994Z" fill="#27231F"/>
<path d="M248.12 220.994H259.117V224.014H251.494V227.485H258.681V230.494H251.494V234.426H259.117V237.446H248.12V220.994Z" fill="#27231F"/>
<path d="M267.376 220.994H272.98C277.05 220.994 278.645 222.896 278.645 225.808C278.645 228.11 277.629 229.617 275.799 230.33L280.131 237.446H276.225L272.364 230.791H270.749V237.446H267.376V220.994ZM272.641 227.767C274.01 227.767 275.271 227.485 275.271 225.854C275.271 224.224 273.984 224.014 272.641 224.014H270.755V227.767H272.641Z" fill="#27231F"/>
<path d="M286.519 229.213C286.519 224.055 289.754 220.6 294.486 220.6C298.023 220.6 300.73 222.502 301.848 225.603L298.659 226.762C297.987 224.921 296.511 223.835 294.48 223.835C291.681 223.835 289.902 225.865 289.902 229.218C289.902 232.571 291.686 234.621 294.48 234.621C296.147 234.621 298.136 233.97 298.695 231.432H294.85V228.413H301.848V237.451H298.874L298.592 235.99C297.638 237.195 296.126 237.856 294.27 237.856C289.748 237.856 286.519 234.401 286.519 229.218V229.213Z" fill="#27231F"/>
<path d="M313.476 230.981L307.693 220.999H311.564L315.081 227.633L318.726 220.999H322.56L316.849 230.981V237.446H313.476V230.981Z" fill="#27231F"/>
</g>
<defs>
<clipPath id="clip0_2630_1835">
<rect width="382.456" height="76.3887" fill="white" transform="translate(8.77197 161.806)"/>
</clipPath>
</defs>
</svg>
